<?xml version="1.0" encoding="UTF-8" standalone="no"?>
<svg
   width="236.16901"
   height="65"
   viewBox="0 0 236.169 65"
   version="1.1"
   id="svg1"
   sodipodi:docname="logo-s4a.svg"
   xmlns:inkscape="http://www.inkscape.org/namespaces/inkscape"
   xmlns:sodipodi="http://sodipodi.sourceforge.net/DTD/sodipodi-0.dtd"
   xmlns="http://www.w3.org/2000/svg"
   xmlns:svg="http://www.w3.org/2000/svg">
  <defs
     id="defs1" />
  <sodipodi:namedview
     id="namedview1"
     pagecolor="#ffffff"
     bordercolor="#000000"
     borderopacity="0.25"
     inkscape:showpageshadow="2"
     inkscape:pageopacity="0.0"
     inkscape:pagecheckerboard="0"
     inkscape:deskcolor="#d1d1d1">
    <inkscape:page
       x="0"
       y="0"
       width="236.16901"
       height="65"
       id="page2"
       margin="0"
       bleed="0" />
  </sodipodi:namedview>
  <path
     id="Unione_4"
     data-name="Unione 4"
     d="m 88.538,64.526 a 3.976,3.976 0 0 1 -1.663,-1.295 3.135,3.135 0 0 1 -0.586,-1.915 h 2.03 a 1.879,1.879 0 0 0 0.658,1.532 2.858,2.858 0 0 0 1.882,0.546 2.43,2.43 0 0 0 1.591,-0.438 1.345,1.345 0 0 0 0.53,-1.129 L 93,61.79 a 1.4,1.4 0 0 0 -0.548,-1.185 6.354,6.354 0 0 0 -1.956,-0.838 8.867,8.867 0 0 1 -2.249,-0.948 2.993,2.993 0 0 1 -1.589,-2.607 2.807,2.807 0 0 1 1.149,-2.312 4.735,4.735 0 0 1 3,-0.911 4.96,4.96 0 0 1 2.175,0.454 3.674,3.674 0 0 1 1.5,1.277 3.259,3.259 0 0 1 0.549,1.841 H 93 a 1.788,1.788 0 0 0 -0.566,-1.421 2.374,2.374 0 0 0 -1.645,-0.51 2.629,2.629 0 0 0 -1.555,0.418 1.421,1.421 0 0 0 -0.548,1.185 1.3,1.3 0 0 0 0.6,1.076 6.712,6.712 0 0 0 1.956,0.838 9,9 0 0 1 2.193,0.93 3.554,3.554 0 0 1 1.206,1.185 3.064,3.064 0 0 1 0.385,1.569 2.757,2.757 0 0 1 -1.115,2.315 A 4.807,4.807 0 0 1 90.877,65 5.824,5.824 0 0 1 88.538,64.526 Z m -57.9,-0.638 A 3.8,3.8 0 0 1 29.45,60.917 v -7.785 h 2.028 v 7.8 a 2.454,2.454 0 0 0 0.6,1.787 2.312,2.312 0 0 0 1.755,0.62 c 1.571,0 2.339,-0.82 2.339,-2.461 v -7.746 h 2.01 v 7.8 a 3.77,3.77 0 0 1 -1.188,2.935 4.488,4.488 0 0 1 -3.181,1.094 4.561,4.561 0 0 1 -3.18,-1.074 z m 148.051,0.364 a 4.415,4.415 0 0 1 -1.717,-1.969 7.139,7.139 0 0 1 -0.622,-2.953 v -0.656 a 7.117,7.117 0 0 1 0.6,-3.008 4.519,4.519 0 0 1 1.717,-2.005 4.733,4.733 0 0 1 2.54,-0.692 4.627,4.627 0 0 1 2.542,0.692 4.508,4.508 0 0 1 1.7,1.969 6.971,6.971 0 0 1 0.6,2.99 v 0.656 l 0.018,-0.018 a 7,7 0 0 1 -0.6,3.008 4.54,4.54 0 0 1 -1.7,1.987 4.734,4.734 0 0 1 -2.54,0.694 4.785,4.785 0 0 1 -2.543,-0.695 z m 0.475,-8.586 a 5.083,5.083 0 0 0 -0.768,2.917 v 0.674 a 5.1,5.1 0 0 0 0.75,2.971 2.609,2.609 0 0 0 4.167,0.036 5.088,5.088 0 0 0 0.732,-2.99 v -0.62 a 5.064,5.064 0 0 0 -0.732,-2.971 2.6,2.6 0 0 0 -4.149,-0.018 z m 26.3,9.134 -0.951,-2.717 h -4.532 L 199.03,64.8 h -2.12 l 4.423,-11.668 h 1.828 l 4.421,11.668 z m -4.935,-4.358 h 3.4 l -1.7,-4.83 z M 166,53.132 h 3.455 a 5.371,5.371 0 0 1 2.742,0.692 4.693,4.693 0 0 1 1.864,1.951 6.155,6.155 0 0 1 0.658,2.9 v 0.584 a 6.181,6.181 0 0 1 -0.658,2.917 4.686,4.686 0 0 1 -1.882,1.931 5.689,5.689 0 0 1 -2.816,0.676 H 166 Z m 2.028,1.641 v 8.4 h 1.334 a 3.02,3.02 0 0 0 2.449,-1 4.418,4.418 0 0 0 0.878,-2.863 v -0.656 a 4.494,4.494 0 0 0 -0.822,-2.9 2.908,2.908 0 0 0 -2.4,-1 h -1.426 z m -5.483,10.027 -0.951,-2.717 h -4.532 l -0.951,2.717 h -2.12 l 4.423,-11.668 h 1.828 l 4.423,11.668 z m -4.935,-4.358 h 3.4 l -1.7,-4.83 z M 137.34,64.8 V 53.132 h 2.028 V 64.8 Z M 126.483,53.132 h 3.455 a 5.361,5.361 0 0 1 2.741,0.692 4.7,4.7 0 0 1 1.865,1.951 6.175,6.175 0 0 1 0.658,2.9 v 0.584 a 6.2,6.2 0 0 1 -0.658,2.917 4.68,4.68 0 0 1 -1.884,1.931 5.683,5.683 0 0 1 -2.815,0.676 h -3.362 V 53.132 Z m 2.028,1.641 v 8.4 h 1.334 a 3.02,3.02 0 0 0 2.449,-1 4.417,4.417 0 0 0 0.877,-2.863 v -0.656 a 4.484,4.484 0 0 0 -0.823,-2.9 2.9,2.9 0 0 0 -2.393,-1 h -1.426 z m -9.577,10.027 -0.951,-2.717 h -4.532 L 112.5,64.8 h -2.12 l 4.42,-11.668 h 1.828 l 4.426,11.668 z m -4.917,-4.34 h 3.4 l -1.7,-4.83 z M 96.927,64.8 V 53.132 h 2.028 V 64.8 Z m -13.654,0 -2.339,-4.486 -0.018,-0.018 h -2.267 v 4.486 h -2.028 v -11.67 h 4.113 a 4.8,4.8 0 0 1 3.126,0.912 3.206,3.206 0 0 1 1.1,2.625 3.261,3.261 0 0 1 -0.566,1.969 3.66,3.66 0 0 1 -1.573,1.221 l 2.632,4.85 v 0.11 z m -4.606,-6.163 -0.018,0.018 h 2.084 a 2.3,2.3 0 0 0 1.607,-0.51 1.821,1.821 0 0 0 0.586,-1.421 2.012,2.012 0 0 0 -0.53,-1.459 2.283,2.283 0 0 0 -1.591,-0.53 H 78.668 Z M 67.317,64.8 V 53.132 H 74.9 v 1.641 H 69.345 V 58 h 4.808 v 1.587 h -4.808 v 3.592 h 5.613 V 64.8 Z m -15.17,0 V 53.132 h 2.028 V 64.8 Z m -4.552,0 -5.208,-8.278 V 64.8 h -2.03 V 53.132 h 2.03 l 5.226,8.312 v -8.312 h 2.012 V 64.8 Z m 143.481,-0.018 -4.185,-11.669 h 2.231 l 2.933,9.106 2.969,-9.106 h 2.231 l -4.2,11.669 z m -45.109,0 v -11.67 h 4.478 a 4.555,4.555 0 0 1 3.107,1.022 3.427,3.427 0 0 1 1.151,2.7 3.317,3.317 0 0 1 -1.133,2.661 4.74,4.74 0 0 1 -3.162,0.948 H 148 v 4.34 z M 148,58.8 v 0.018 h 2.448 a 2.4,2.4 0 0 0 1.665,-0.51 1.857,1.857 0 0 0 0.566,-1.477 2,2 0 0 0 -0.586,-1.513 2.232,2.232 0 0 0 -1.589,-0.584 H 148 Z m -43.757,5.981 V 54.753 h -3.623 v -1.641 h 9.28 v 1.641 h -3.655 v 10.029 z m -44.415,0 -4.191,-11.669 h 2.231 l 2.933,9.1 2.971,-9.1 H 66 l -4.2,11.67 z m 14.33,-5.2 V 59.6 Z M 38.182,53.132 H 38.2 Z m 76.968,-0.694 -2.175,-2.423 h 2.225 l 1.573,2.423 z M 62.017,44.69 C 50.574,38.163 50.466,31.182 50.392,27.444 H 50.41 V 27.408 C 50.356,23.742 53.718,5.44 53.756,5.257 V 5.239 h 0.036 c 0.951,0.126 13.89,0.564 14.019,0.564 h 0.036 V 5.84 L 66.988,14.9 H 66.97 l -6.087,0.528 -0.237,2.405 4.754,0.767 -0.584,8.168 H 64.8 l -4.333,0.418 c 0.165,4.45 1.791,5.853 3.181,7.239 a 7.986,7.986 0 0 0 3,1.969 h 0.018 v 0.036 l -4.613,8.26 z M 0,31.254 8.39,30.343 c 0,0 -0.439,4.5 1.717,4.43 0.165,-0.018 1.28,-0.128 1.28,-1.8 0,-1.951 -1.059,-2.661 -4.588,-6.363 -0.4,-0.42 -4.221,-4.668 -5.264,-7.658 A 12.284,12.284 0 0 1 0.823,15.1 V 15.01 C 0.73,5.858 8.243,5.075 10.089,4.947 21.111,4.147 20.306,16.979 20.306,17.035 v 0.036 H 20.27 l -8.133,0.474 c 0,0 0.329,-4.978 -1.609,-4.758 -0.676,0.072 -1.005,0.856 -0.951,1.877 0.036,0.748 0.074,2.789 4.131,6.891 3.326,3.391 5.465,5.633 6.215,9.845 v -0.018 c 0.658,3.5 -0.347,10.7 -8.975,11.741 -0.431,0.041 -0.844,0.061 -1.242,0.061 C 1.152,43.182 -0.016,34.181 0,31.254 Z m 176.216,11.869 -9.1,-2.717 V 40.37 c 1.1,-2.353 9.248,-34.748 9.321,-35.095 l 13.344,-1.441 v 0.054 c 0.054,0.328 5.465,33.418 6.087,35.771 l 0.018,0.054 h -0.056 l -10.308,1.713 V 41.39 l -0.622,-5.8 -7.2,0.875 -1.444,6.655 z m 3.655,-16.39 3.986,-0.82 -1.336,-12.4 z M 198,42.921 196.61,4.527 196.646,4.509 206.266,2.8 v 0.036 l 0.913,28.732 7.477,-0.456 1.206,10.7 h -0.036 L 198,42.977 Z m -49.735,-7.966 -14.4,0.765 v -0.036 l -3.254,-10.391 c 3.071,-3.245 18.478,-22.242 18.625,-22.461 l 1.1,0.218 10.783,2.279 v 0.036 c -0.018,0.128 -1.1,12.634 -1.3,16.882 l 0.056,0.018 c -0.018,0.328 -0.056,0.73 -0.056,1.168 l 4.333,-0.256 v 0.036 l -0.841,10.9 h -0.038 l -3.691,0.2 c -0.054,3.974 -0.092,7.365 -0.092,7.365 v 0.036 l -11.734,1.222 z m -4.857,-10.555 5.519,-0.328 v 0.02 l 0.823,-7.84 z m -18.552,18.011 c -4.187,-0.182 -6.654,-0.674 -8.554,-1.659 -1.9,-1 -3.29,-2.533 -4.752,-5.323 -0.786,-1.495 -1.882,-5.506 -2.632,-16.19 -0.457,-6.381 -0.566,-12.762 -0.566,-12.762 V 6.442 l 17.327,-1.221 -0.146,8.786 h -0.018 l -5.976,0.984 0.054,2.3 h 3.984 l -0.11,7.986 h -0.018 l -4.239,1.112 a 5.821,5.821 0 0 0 1.443,4.374 8.8,8.8 0 0 0 5.484,2.353 v -0.02 h 0.036 v 0.038 l -1.28,9.279 z M 21.787,23.506 C 21.751,15.138 22.848,9.706 25.845,6.88 28.405,4.455 32.59,4.291 35.551,4.545 h 0.036 v 0.038 l -0.457,9.771 h -0.036 a 2.827,2.827 0 0 0 -2.851,1.9 c -0.329,1.331 -0.457,3.518 -0.421,8.058 0.018,3.81 0.421,5.853 1.226,7.237 A 2.853,2.853 0 0 0 35.843,33 h 0.036 v 0.036 l 0.786,9.334 H 36.647 C 36.29,42.386 35.941,42.393 35.602,42.393 22.571,42.4 21.824,31.342 21.787,23.506 Z M 78.686,42.1 69.127,41.956 v -0.02 L 70.206,7.152 h 0.036 c 0.054,0 6.013,-0.054 8.48,0.038 2.778,0.09 6.508,1.275 8.592,4.3 a 20.814,20.814 0 0 1 2.393,6.235 c 0.512,2.1 0.75,3.846 0.75,3.846 l 2.5,19.435 h -0.036 l -9.98,0.418 v -0.036 c 0,-0.182 -1.352,-19.361 -1.791,-22.279 a 3.177,3.177 0 0 0 -1.5,-2.443 2.608,2.608 0 0 0 -1.133,-0.254 l 0.2,25.686 z m -9.6,-0.146 h 0.036 v 0.018 z M 103.248,41.81 A 7.949,7.949 0 0 1 97.142,38.893 L 97.124,38.875 C 94.675,35.958 93.268,30.743 92.885,23.342 92.464,15.084 93.67,9.669 96.558,6.788 c 2.614,-2.571 6.233,-2.753 9.76,-2.551 h 0.036 l -0.255,9.825 h -0.036 c -1.39,0.038 -2.285,0.366 -2.742,1.843 -0.439,1.459 -0.475,4.046 -0.365,8.058 0.219,8.2 2.522,9.243 4.752,9.188 h 0.036 v 0.036 l 0.694,8.5 h -0.036 a 17.635,17.635 0 0 1 -2.339,0.182 c -0.255,0.007 -0.53,0.01 -0.822,0.01 C 104.657,41.875 104,41.86 103.252,41.811 Z M 38.58,41.554 v -0.036 c 0.056,-1.8 0.329,-28.623 0.329,-28.623 0,0 4.716,0.056 9.14,-0.072 h 0.036 v 0.036 c -0.109,1.951 -0.183,26.344 -0.072,28.367 v 0.036 H 48 C 46.19,41.28 40.945,41.5 38.623,41.554 Z M 217.889,40.9 215.861,5.9 h 0.036 l 9.687,-1.258 1.28,25.068 9.066,-0.948 0.238,10.537 -0.038,0.018 -18.241,1.623 z M 39.882,9.213 A 5.4,5.4 0 0 1 38.439,5.257 5.523,5.523 0 0 1 40.229,1.447 5.433,5.433 0 0 1 44.2,0.007 5.49,5.49 0 0 1 43.961,10.982 H 43.7 V 11 A 5.554,5.554 0 0 1 39.882,9.213 Z"
     fill="#fff"
     style="fill:#d40000" />
</svg>
