<?xml version="1.0" encoding="UTF-8"?>
<svg xmlns="http://www.w3.org/2000/svg" width="236.169" height="65" viewBox="0 0 236.169 65">
  <path id="Unione_4" data-name="Unione 4" d="M88.538,64.526a3.976,3.976,0,0,1-1.663-1.295,3.135,3.135,0,0,1-.586-1.915h2.03a1.879,1.879,0,0,0,.658,1.532,2.858,2.858,0,0,0,1.882.546,2.43,2.43,0,0,0,1.591-.438,1.345,1.345,0,0,0,.53-1.129L93,61.79a1.4,1.4,0,0,0-.548-1.185,6.354,6.354,0,0,0-1.956-.838,8.867,8.867,0,0,1-2.249-.948,2.993,2.993,0,0,1-1.589-2.607A2.807,2.807,0,0,1,87.807,53.9a4.735,4.735,0,0,1,3-.911,4.96,4.96,0,0,1,2.175.454,3.674,3.674,0,0,1,1.5,1.277,3.259,3.259,0,0,1,.549,1.841H93a1.788,1.788,0,0,0-.566-1.421,2.374,2.374,0,0,0-1.645-.51,2.629,2.629,0,0,0-1.555.418,1.421,1.421,0,0,0-.548,1.185,1.3,1.3,0,0,0,.6,1.076,6.712,6.712,0,0,0,1.956.838,9,9,0,0,1,2.193.93,3.554,3.554,0,0,1,1.206,1.185,3.064,3.064,0,0,1,.385,1.569,2.757,2.757,0,0,1-1.115,2.315A4.807,4.807,0,0,1,90.877,65,5.824,5.824,0,0,1,88.538,64.526Zm-57.9-.638a3.8,3.8,0,0,1-1.188-2.971V53.132h2.028v7.8a2.454,2.454,0,0,0,.6,1.787,2.312,2.312,0,0,0,1.755.62c1.571,0,2.339-.82,2.339-2.461V53.132h2.01v7.8a3.77,3.77,0,0,1-1.188,2.935,4.488,4.488,0,0,1-3.181,1.094A4.561,4.561,0,0,1,30.633,63.887Zm148.051.364a4.415,4.415,0,0,1-1.717-1.969,7.139,7.139,0,0,1-.622-2.953v-.656a7.117,7.117,0,0,1,.6-3.008,4.519,4.519,0,0,1,1.717-2.005,4.733,4.733,0,0,1,2.54-.692,4.627,4.627,0,0,1,2.542.692,4.508,4.508,0,0,1,1.7,1.969,6.971,6.971,0,0,1,.6,2.99v.656l.018-.018a7,7,0,0,1-.6,3.008,4.54,4.54,0,0,1-1.7,1.987,4.734,4.734,0,0,1-2.54.694A4.785,4.785,0,0,1,178.684,64.252Zm.475-8.586a5.083,5.083,0,0,0-.768,2.917v.674a5.1,5.1,0,0,0,.75,2.971,2.609,2.609,0,0,0,4.167.036,5.088,5.088,0,0,0,.732-2.99v-.62a5.064,5.064,0,0,0-.732-2.971,2.6,2.6,0,0,0-4.149-.018Zm26.3,9.134-.951-2.717h-4.532l-.951,2.717h-2.12l4.423-11.668h1.828L207.582,64.8Zm-4.935-4.358h3.4l-1.7-4.83ZM166,53.132h3.455a5.371,5.371,0,0,1,2.742.692,4.693,4.693,0,0,1,1.864,1.951,6.155,6.155,0,0,1,.658,2.9v.584a6.181,6.181,0,0,1-.658,2.917,4.686,4.686,0,0,1-1.882,1.931,5.689,5.689,0,0,1-2.816.676H166V53.132Zm2.028,1.641v8.4h1.334a3.02,3.02,0,0,0,2.449-1,4.418,4.418,0,0,0,.878-2.863v-.656a4.494,4.494,0,0,0-.822-2.9,2.908,2.908,0,0,0-2.4-1h-1.426ZM162.545,64.8l-.951-2.717h-4.532l-.951,2.717h-2.12l4.423-11.668h1.828L164.665,64.8Zm-4.935-4.358h3.4l-1.7-4.83ZM137.34,64.8V53.132h2.028V64.8ZM126.483,53.132h3.455a5.361,5.361,0,0,1,2.741.692,4.7,4.7,0,0,1,1.865,1.951,6.175,6.175,0,0,1,.658,2.9v.584a6.2,6.2,0,0,1-.658,2.917,4.68,4.68,0,0,1-1.884,1.931,5.683,5.683,0,0,1-2.815.676h-3.362V53.132Zm2.028,1.641v8.4h1.334a3.02,3.02,0,0,0,2.449-1,4.417,4.417,0,0,0,.877-2.863v-.656a4.484,4.484,0,0,0-.823-2.9,2.9,2.9,0,0,0-2.393-1h-1.426ZM118.934,64.8l-.951-2.717h-4.532L112.5,64.8h-2.12L114.8,53.132h1.828L121.054,64.8Zm-4.917-4.34h3.4l-1.7-4.83ZM96.927,64.8V53.132h2.028V64.8Zm-13.654,0-2.339-4.486-.018-.018H78.649v4.486H76.621V53.112h4.113a4.8,4.8,0,0,1,3.126.912,3.206,3.206,0,0,1,1.1,2.625,3.261,3.261,0,0,1-.566,1.969,3.66,3.66,0,0,1-1.573,1.221l2.632,4.85v.11Zm-4.606-6.163-.018.018h2.084a2.3,2.3,0,0,0,1.607-.51,1.821,1.821,0,0,0,.586-1.421,2.012,2.012,0,0,0-.53-1.459,2.283,2.283,0,0,0-1.591-.53H78.668ZM67.317,64.8V53.132H74.9v1.641H69.345V58h4.808v1.587H69.345v3.592h5.613V64.8Zm-15.17,0V53.132h2.028V64.8Zm-4.552,0-5.208-8.278V64.8h-2.03V53.132h2.03l5.226,8.312V53.132h2.012V64.8Zm143.481-.018-4.185-11.669h2.231l2.933,9.106,2.969-9.106h2.231l-4.2,11.669Zm-45.109,0V53.112h4.478a4.555,4.555,0,0,1,3.107,1.022,3.427,3.427,0,0,1,1.151,2.7,3.317,3.317,0,0,1-1.133,2.661,4.74,4.74,0,0,1-3.162.948H148v4.34ZM148,58.8v.018h2.448a2.4,2.4,0,0,0,1.665-.51,1.857,1.857,0,0,0,.566-1.477,2,2,0,0,0-.586-1.513,2.232,2.232,0,0,0-1.589-.584H148Zm-43.757,5.981V54.753H100.62V53.112H109.9v1.641h-3.655V64.782Zm-44.415,0L55.637,53.112h2.231l2.933,9.1,2.971-9.1H66L61.8,64.782Zm14.33-5.2V59.6ZM38.182,53.132H38.2Zm76.968-.694-2.175-2.423H115.2l1.573,2.423ZM62.017,44.69C50.574,38.163,50.466,31.182,50.392,27.444h.018v-.036c-.054-3.666,3.308-21.968,3.346-22.151V5.239h.036c.951.126,13.89.564,14.019.564h.036V5.84L66.988,14.9H66.97l-6.087.528-.237,2.405L65.4,18.6l-.584,8.168H64.8l-4.333.418c.165,4.45,1.791,5.853,3.181,7.239a7.986,7.986,0,0,0,3,1.969h.018v.036L62.053,44.69ZM0,31.254l8.39-.911s-.439,4.5,1.717,4.43c.165-.018,1.28-.128,1.28-1.8,0-1.951-1.059-2.661-4.588-6.363-.4-.42-4.221-4.668-5.264-7.658A12.284,12.284,0,0,1,.823,15.1V15.01C.73,5.858,8.243,5.075,10.089,4.947c11.022-.8,10.217,12.032,10.217,12.088v.036H20.27l-8.133.474s.329-4.978-1.609-4.758c-.676.072-1.005.856-.951,1.877.036.748.074,2.789,4.131,6.891,3.326,3.391,5.465,5.633,6.215,9.845v-.018c.658,3.5-.347,10.7-8.975,11.741-.431.041-.844.061-1.242.061C1.152,43.182-.016,34.181,0,31.254ZM176.216,43.123l-9.1-2.717V40.37c1.1-2.353,9.248-34.748,9.321-35.095l13.344-1.441v.054c.054.328,5.465,33.418,6.087,35.771l.018.054h-.056l-10.308,1.713v-.036l-.622-5.8-7.2.875-1.444,6.655Zm3.655-16.39,3.986-.82-1.336-12.4ZM198,42.921l-1.39-38.394.036-.018L206.266,2.8v.036l.913,28.732,7.477-.456,1.206,10.7h-.036L198,42.977Zm-49.735-7.966-14.4.765v-.036l-3.254-10.391c3.071-3.245,18.478-22.242,18.625-22.461l1.1.218,10.783,2.279v.036c-.018.128-1.1,12.634-1.3,16.882l.056.018c-.018.328-.056.73-.056,1.168l4.333-.256v.036l-.841,10.9h-.038l-3.691.2c-.054,3.974-.092,7.365-.092,7.365v.036l-11.734,1.222ZM143.408,24.4l5.519-.328v.02l.823-7.84ZM124.856,42.411c-4.187-.182-6.654-.674-8.554-1.659-1.9-1-3.29-2.533-4.752-5.323-.786-1.495-1.882-5.506-2.632-16.19-.457-6.381-.566-12.762-.566-12.762V6.442l17.327-1.221-.146,8.786h-.018l-5.976.984.054,2.3h3.984l-.11,7.986h-.018l-4.239,1.112a5.821,5.821,0,0,0,1.443,4.374,8.8,8.8,0,0,0,5.484,2.353v-.02h.036v.038l-1.28,9.279ZM21.787,23.506c-.036-8.368,1.061-13.8,4.058-16.626,2.56-2.425,6.745-2.589,9.706-2.335h.036v.038l-.457,9.771h-.036a2.827,2.827,0,0,0-2.851,1.9c-.329,1.331-.457,3.518-.421,8.058.018,3.81.421,5.853,1.226,7.237A2.853,2.853,0,0,0,35.843,33h.036v.036l.786,9.334h-.018c-.357.016-.706.023-1.045.023C22.571,42.4,21.824,31.342,21.787,23.506ZM78.686,42.1l-9.559-.144v-.02L70.206,7.152h.036c.054,0,6.013-.054,8.48.038,2.778.09,6.508,1.275,8.592,4.3a20.814,20.814,0,0,1,2.393,6.235c.512,2.1.75,3.846.75,3.846l2.5,19.435h-.036l-9.98.418v-.036c0-.182-1.352-19.361-1.791-22.279a3.177,3.177,0,0,0-1.5-2.443,2.608,2.608,0,0,0-1.133-.254l.2,25.686Zm-9.6-.146.036,0v.018Zm34.162-.144a7.949,7.949,0,0,1-6.106-2.917l-.018-.018c-2.449-2.917-3.856-8.132-4.239-15.533-.421-8.258.785-13.673,3.673-16.554,2.614-2.571,6.233-2.753,9.76-2.551h.036l-.255,9.825h-.036c-1.39.038-2.285.366-2.742,1.843-.439,1.459-.475,4.046-.365,8.058.219,8.2,2.522,9.243,4.752,9.188h.036v.036l.694,8.5h-.036a17.635,17.635,0,0,1-2.339.182c-.255.007-.53.01-.822.01C104.657,41.875,104,41.86,103.252,41.811Zm-64.668-.256v-.036c.056-1.8.329-28.623.329-28.623s4.716.056,9.14-.072h.036v.036c-.109,1.951-.183,26.344-.072,28.367v.036H48c-1.81.018-7.055.238-9.377.292ZM217.889,40.9l-2.028-35h.036l9.687-1.258,1.28,25.068,9.066-.948.238,10.537-.038.018-18.241,1.623ZM39.882,9.213a5.4,5.4,0,0,1-1.443-3.956,5.523,5.523,0,0,1,1.79-3.81A5.433,5.433,0,0,1,44.2.007a5.49,5.49,0,0,1-.239,10.975H43.7V11A5.554,5.554,0,0,1,39.882,9.213Z" transform="translate(0 0)" fill="#fff"></path>
</svg>
